<svg xmlns="http://www.w3.org/2000/svg" xmlns:xlink="http://www.w3.org/1999/xlink" width="512" height="256" viewBox="0 0 512 256"><defs><style>.a{fill-rule:evenodd;fill:url(#a);}</style><linearGradient id="a" x1="256" y1="178.27" x2="256" y2="59.77" gradientUnits="userSpaceOnUse"><stop offset="0" stop-color="#9ec3d0"/><stop offset="1" stop-color="#3e99c2"/></linearGradient></defs><title>Artboard 2</title><path class="a" d="M502.73,66.15q1.35,11.63,4.22,12.47l-10.22-.12q2.63-.45,4.17-12.1.72-5.84,1-11.53A83.72,83.72,0,0,0,502.73,66.15Zm-10.65,16.2H512v2.27H492.08Zm2.59-2.45H510v1.7H494.67Zm-6.92,8.25H512v2.57H487.75Zm4.45,7.42v6.88h2V95.57Zm-2.95,0v6.88h2V95.57Zm-2.95,0v6.88h2.1V95.57Zm17.7,0v6.88h2.17V95.57Zm-2.9,0v6.88h2.07V95.57Zm-3,0v6.88h2.1V95.57Zm-7.5-10.45H512v2.6H490.65Zm4.55,10.45v6.88h2.1V95.57Zm16.8,0h-2v6.88h2v.92h-2v6.9h2v1h-2v6.87h2v.9h-2V126h2v1.82H509v1.65H512v.8H509v5.63H512v1.32H482v-7.25h2.48V94.15H512Zm-5,0v6.88h2.13V95.57Zm5-4.35v2.6H485.33v-2.6Zm-5,12.15v6.9h2.13v-6.9Zm0,7.88v6.87h2.13v-6.87Zm0,7.77V126h2.13V119Zm-3-15.65v6.9h2.17v-6.9Zm-5.85,0v6.9h2.1v-6.9Zm0,7.88v6.87h2.1v-6.87Zm5.85,0v6.87h2.17v-6.87Zm-2.9-7.88v6.9h2.07v-6.9Zm-3.8,0h-2.1v6.9h2.1Zm3.8,7.88v6.87h2.07v-6.87Zm-8.9-7.88v6.9h2v-6.9Zm-5.9,0v6.9h2.1v-6.9Zm0,7.88v6.87h2.1v-6.87Zm5.9,0v6.87h2v-6.87Zm-.93-1v-6.9h-2v6.9Zm-2,1v6.87h2v-6.87Zm0,7.77V126h2V119Zm2.95,0V126h2V119Zm-5.9,0V126h2.1V119Zm17.7,0V126h2.17V119Zm-2.9,0V126h2.07V119Zm-3,0V126h2.1V119Zm-.85-7.77h-2.1v6.87h2.1ZM495.2,119V126h2.1V119Zm8.8,8.75h-3.55v1.65H504Zm.65,1.65h3.65v-1.65h-3.65Zm-4.85,0v-1.65h-3.6v1.65Zm0,.8h-3.6v5.63h3.6Zm.65,5.63H504v-5.63h-3.55Zm4.2,0h3.65v-5.63h-3.65Zm-9.1-8.08h-3.63v1.65h3.63Zm-4.28,0h-3.52v1.65h3.52Zm-3.52,8.08h3.52v-5.63h-3.52Zm7.8,0v-5.63h-3.63v5.63ZM512,147.25v7.6H477.58v1.6H512V256H0V156.45H9.8v-1.6H0v-7.6H9.8v-1.68H0v-7H9.8v-1.38H0v-1.32H.48v-5.63H0v-.8H.48v-1.65H0V126H.1V119H0v-.9H.1v-6.87H0v-1H.1v-6.9H0v-.92H.1V95.57H0V94.15H8.13v35.77H9.8v-5.8H9.68v-1.75h.87v-.52H9.35l.72-4.1h2.16v-.45H10.07a12.62,12.62,0,0,0,2.16-1v-6.1a2.89,2.89,0,0,1,.59-1.78,2,2,0,0,1,1.5-.67,2.1,2.1,0,0,1,1.53.67,3.38,3.38,0,0,1,.65,1.78v2.52a19.79,19.79,0,0,0,2.52-4.8h.13a21.1,21.1,0,0,0,.65-6l-.05-1.58h1.3A4,4,0,0,1,22.7,97.8a4.74,4.74,0,0,1,3.12-1.08A5,5,0,0,1,29,97.8a4.21,4.21,0,0,1,1.7,2.52H32l-.13,1.58a15.29,15.29,0,0,0,1,6.1l.67,1v-6.13H42.2V109l.57-1.08a15.83,15.83,0,0,0,.93-6l-.07-1.58h1.3a4,4,0,0,1,1.62-2.52,5.13,5.13,0,0,1,6.3,0,3.84,3.84,0,0,1,1.58,2.52H55.8l-.07,1.58a20.36,20.36,0,0,0,1,6h.07a10.45,10.45,0,0,0,.91,2.28,14.45,14.45,0,0,0,1.84,2.52v-2.4a2.62,2.62,0,0,1,.58-1.75,2,2,0,0,1,1.58-.77,1.79,1.79,0,0,1,1.45.77,2.42,2.42,0,0,1,.64,1.75v6.1a6.23,6.23,0,0,0,1.58.88H63.82v.45H65.4l.73,4.1H64.85v.52h1v39.75h.92v-9.4H83.43l-.08,9.4h7.22v-9.4h16.56v9.4h.94v-.5h.08v-.25h4.65V65.57h-2.23V63.45h4v-5.8H118V50.3h1v7.35h4.18v5.8h15.43v2.12h-8.63q23,19.88,34.77,55.6a174.33,174.33,0,0,1,8.5,40.2h4.61v-3.3h3.72V135h5.55V119.7h4.5V107.8h5.5v-2.58h8.45v-3.4H208v-4.6h2.4v4.6h2.35v3.4h8.3v2.58h5.5v11.9h4.65V135h5.43v23h3.85v7h2.29v-.45h2.55v-2h2v-59.4h4.38V90.77h8.12V80.27h4.55V75.75h3.27V70.62h1.06v5.13h3.35v4.52h4.55v10.5h8.12v12.48H289v59.4h2.13v2h2.62v2h4.8v-2.12h4.25V118.77h5V115h4.37v-4h4.2l.12-.45a14.48,14.48,0,0,1,5.63-10.32,18.59,18.59,0,0,1,24.55,0c3.5,2.91,5.36,6.36,5.57,10.32l.21.45h4.19v4h4.18v3.8H366v45.75h4.32v2.12h3.4V166h1.5V164.2h49.18V123.3h1.9V112.42h9.38V123.3h1.92v5.12h1.7v-28.1h7.38V85.25h8.82v15.07h7.4v28.1h1.53V123.3h1.87V112.42h9.42V123.3h1.91v24Zm0-8.7v7H479.38v-7ZM407.52,88.85h-.17l1.17,2.82H390.13l1.2-3V80.32h3.59l4.23-10.2v-5.3h.45V70l4.28,10.37h3.64Zm35.06-.58q.27,10.61,2.34,11.28h-4.84q1.32-.26,2.05-5.73Zm7.77-13q.33-4.56.45-9,.4,17.53,2.4,18.23h-4.8Q449.71,84.25,450.35,75.25Zm-.8,11.2v2.9h3.08v-2.9Zm0,11.85h3.08v-3h-3.08Zm0-4.48h3.08v-3h-3.08Zm9.18-5.47q.31,10.58,2.5,11.27H456.3q1.24-.2,2-5.72Zm-125.6,2.37,2.1-.07V87.47l-.73-.07-1.37.07Zm-3.88,1.7v3a15,15,0,0,1,2.13-.48V91.8Zm.75-4.15v3.08l2.1-.45V87.72ZM327,90.1v2.65a5.61,5.61,0,0,0-1.15.87V91.1a12.84,12.84,0,0,0-1.95,2.8v1.55a5.28,5.28,0,0,0-1.58,2,11.28,11.28,0,0,1,3.83-7.07,12.32,12.32,0,0,1,8.28-3.2,12.11,12.11,0,0,1,8.17,3.2,11,11,0,0,1,4,7.07,14.22,14.22,0,0,0-5-4.72,13.77,13.77,0,0,0-7.12-2,13.94,13.94,0,0,0-5.46,1v-3A9.22,9.22,0,0,0,327,90.1Zm-1.15,4.12v2.63l2.08-1v-2.9A20.26,20.26,0,0,0,325.8,94.22Zm-1.22,4.7V102a18.29,18.29,0,0,1,2.37-1.15v-3.4Zm-.2-3.65a14.15,14.15,0,0,1,10-4.1,13.43,13.43,0,0,1,8.5,3,13,13,0,0,1,5.1,6.67,18.67,18.67,0,0,0-13.6-5.55,18.86,18.86,0,0,0-13.65,5.55L322.15,98v1.4a13.93,13.93,0,0,1,2.23-1.77Zm8.42-.42,2.22-.08V91.6l-2.22.07Zm-4.2,2v3.52c.58-.16,1.46-.35,2.63-.55V96.15Zm10.8-5.3,1.9.87V89.6l-1.9-1.13Zm-3.13.17v3.13a14.35,14.35,0,0,1,2.28.42v-3.1A12.11,12.11,0,0,0,336.27,91.72Zm0-4.2v3.2l1.88.45V88Zm5.75,9V93.7l-2.29-1.08v2.95A10.12,10.12,0,0,1,342,96.47Zm-1,.63v3.47l2.6,1.08V98.42Zm2.29,0,2.21,1.57v-1.9a11.07,11.07,0,0,0-2.21-2.12Zm-8.89-10.28a11.57,11.57,0,0,0-5.78,1.58l5.78-15.93,5.87,15.93A11.54,11.54,0,0,0,334.38,86.82ZM336.8,96v3.65l2.6.53V96.6C338.83,96.43,338,96.24,336.8,96Zm5.75-2.9,1.87,1.65v-2l-1.87-2.23ZM332.8,96v3.67l1.7-.07.92.07V95.9Zm69.7-12.48a4.48,4.48,0,0,0-3.15-1.12,4.9,4.9,0,0,0-3.25,1.12A3.07,3.07,0,0,0,394.77,86a3.18,3.18,0,0,0,1.33,2.6,5.14,5.14,0,0,0,3.25,1,4.87,4.87,0,0,0,3.15-1,3.36,3.36,0,0,0,1.38-2.6A3,3,0,0,0,402.5,83.47ZM390,95.77v4.93h4.78V95.77Zm7.22,0v4.93h4.66V95.77Zm7.23,12.4h4.65v-4.85H404.4Zm-7.23-4.85v4.85h4.66v-4.85ZM390,108.17h4.78v-4.85H390Zm-4.05,6.88v7.82h3.77v-7.82Zm8.5,7.82v-7.82h-3.67v7.82Zm1.1-7.82v7.82h3.73v-7.82Zm8.5,7.82v-7.82h-3.8v7.82Zm-20.45,18.5h4.65v-4.9h-4.65Zm0-7.42h4.65v-4.9h-4.65Zm14.3-4.9V134h4.65v-4.9Zm-2.47,0h-4.65V134h4.65Zm-4.65,12.32h4.65v-4.9h-4.65Zm7.12,2.65v4.88h4.65V144Zm0-7.55v4.9h4.65v-4.9ZM390.73,144v4.88h4.65V144Zm-7.18,0v4.88h4.65V144ZM381,112.6h37.21v12.55H381ZM345,102.37a9.42,9.42,0,0,1,2.65,1.78V101.9A15.31,15.31,0,0,0,345,99.37Zm.72,1.45a19,19,0,0,1,2.83,2.08,16.9,16.9,0,0,1,3.77,5.15v-.48a17.47,17.47,0,0,0-6.94-7.57,21.18,21.18,0,0,0-10.95-3,20.31,20.31,0,0,0-10.86,3,18.31,18.31,0,0,0-7,7.57v.48a18.2,18.2,0,0,1,3.86-5.15,17.13,17.13,0,0,1,2.82-2.08v-.17a19.91,19.91,0,0,1,11.18-3.28,20.15,20.15,0,0,1,11.29,3.28Zm2.31,2.65v6.13h5V112h-.52l-.33-.45a41,41,0,0,1-3.65-4.63Zm0,13h5v-5.77h-5Zm0,1.13v5.75h5v-5.75Zm-3.56-6.9h-5v5.77h5Zm11.93,6.6v6.05h5.2v-6.05Zm-11.93-16.28a22.47,22.47,0,0,0-5-2V112.6h5ZM324.25,104v8.65h5.23V102A18.22,18.22,0,0,0,324.25,104Zm0,9.8v5.77h5.23v-5.77Zm0,6.9v5.75h5.23v-5.75Zm11.17-19.2h-2.29V112.6h2.29Zm4,31.87h5v-5.8h-5Zm-15.15,1.13v5.72h5.23v-5.72Zm0-1.13h5.23v-5.8h-5.23Zm0,8v5.8h5.23v-5.8Zm0,6.93V154h5.23v-5.72Zm15.15-1.13h5v-5.8h-5Zm0-7h5v-5.72h-5Zm17-5.72v5.72h5.2v-5.72Zm0-6.93v5.8h5.2v-5.8Zm-8.37,0v5.8h5v-5.8Zm0,6.93v5.72h5v-5.72Zm0,6.87v5.8h5v-5.8Zm0,6.93V154h5v-5.72Zm13.57-1.13v-5.8h-5.2v5.8Zm-5.2,1.13V154h5.2v-5.72Zm-17,0V154h5v-5.72Zm0-27.6v5.75h5v-5.75Zm17,34.47v5.8h5.2v-5.8Zm-8.37,0v5.8h5v-5.8ZM344.42,162h-5v2.52h5Zm8.58,2.52V162h-5v2.52Zm8.55-2.52h-5.2v2.52h5.2Zm-17.13-6.88h-5v5.8h5Zm-20.17,0v5.8h5.23v-5.8Zm5.23,9.4V162h-5.23v2.52Zm73.22-10.05v.08a.54.54,0,0,1-.6.62h-.2v8.18h-3.73v-8.18c-.48,0-.72-.21-.72-.62l.13-.08-.33-.25v-.05a1,1,0,0,1-.45-.82h-2.88a1,1,0,0,1-.52.82v.05l-.17.25v.08c0,.41-.23.62-.68.62h-.13v8.18H388.6v-8.18a.54.54,0,0,1-.6-.62v-.08l-.27-.25v-.05a1,1,0,0,1-.5-.82h-2.78a.94.94,0,0,1-.57.82v.05l-.21.25v.08c0,.41-.24.62-.72.62h-.05v8.18H379v-8.18a.56.56,0,0,1-.58-.62v-.08l-.32-.25.07-.05a1,1,0,0,1-.59-.82h-.45v-2.58h1.47V126.22h42.88v24.55h1.69v2.58h-.47a1,1,0,0,1-.65.82v.05l-.2.25v.08c0,.41-.22.62-.65.62h-.12v8.18h-3.91v-8.18a.55.55,0,0,1-.57-.62v-.08l-.2-.25v-.05a1,1,0,0,1-.6-.82h-2.7a1,1,0,0,1-.52.82v.05l-.25.25v.08a.54.54,0,0,1-.6.62h-.21v8.18h-3.79v-8.18c-.44,0-.65-.21-.65-.62v-.08l-.2-.25v-.05a1,1,0,0,1-.53-.82h-2.87a1.14,1.14,0,0,1-.46.82v.05Zm68.55-54.35q.27,10.53,2.45,11.25h-4.87c.8-.13,1.45-2.06,2-5.77ZM468.7,122.5h4.55v-3.6H468.7Zm4.55-8.33H468.7v3.45h4.55ZM456.7,108.5v4.1h4.4v-4.1Zm0-2.85h4.4v-4.08h-4.4ZM449,108.5v4.1h4.38v-4.1Zm-3.25-6.93H441.4v4.08h4.37Zm7.63,4.08v-4.08H449v4.08ZM449,115.3v4.22h4.38V115.3Zm-3.25,0H441.4v4.22h4.37Zm3.25,6.92v4.13h4.38v-4.13Zm7.68-6.92v4.22h4.4V115.3Zm0,6.92v4.13h4.4v-4.13ZM445.77,108.5H441.4v4.1h4.37ZM461,131.3a2.53,2.53,0,0,0-2.14,1.52,9.76,9.76,0,0,0-1.25,3.73v29.9h6.75v-30a8.31,8.31,0,0,0-1.21-3.65A2.66,2.66,0,0,0,461,131.3Zm-11.64,15.57a2.84,2.84,0,0,0-.65,1.95v4h4.54v-4a3.09,3.09,0,0,0-.64-2,2,2,0,0,0-1.55-.8A2,2,0,0,0,449.38,146.87Zm3.89-8.45a3.07,3.07,0,0,0-.64-1.95,1.94,1.94,0,0,0-1.55-.82,2,2,0,0,0-1.7.9,2.84,2.84,0,0,0-.65,1.95v3.95h4.54ZM473,126.15a2.09,2.09,0,0,0-1.67-.83,1.9,1.9,0,0,0-1.58.9,2.89,2.89,0,0,0-.65,1.95v4h4.6v-4A3.08,3.08,0,0,0,473,126.15ZM471.33,146a1.92,1.92,0,0,0-1.58.87,2.89,2.89,0,0,0-.65,1.95v4h4.6v-4a3.32,3.32,0,0,0-.7-2A2.09,2.09,0,0,0,471.33,146Zm2.37-3.55v-4a3.3,3.3,0,0,0-.7-1.95,2.08,2.08,0,0,0-1.67-.82,1.9,1.9,0,0,0-1.58.9,2.89,2.89,0,0,0-.65,1.95v3.95Zm-27.93-20.23H441.4v4.13h4.37Zm-14.5-22c.15,7,1,10.81,2.4,11.3h-4.82q1.25-.26,1.95-5.78Zm-2.5,22.25h4.43v-3.6h-4.43Zm0-8.33v3.45h4.43v-3.45Zm-18.94.88v7.82h3.75v-7.82Zm-4.7,0v7.82h3.6v-7.82Zm11.79,14H412.2V134h4.72Zm-7.15,0h-4.64V134h4.64Zm-4.64,15v4.88h4.64V144Zm4.64-7.55h-4.64v4.9h4.64Zm2.43,4.9h4.72v-4.9H412.2Zm0,2.65v4.88h4.72V144Zm26.47-10.77a12.52,12.52,0,0,0-1,4.75h-.08v28.45h6.72v-31c-.61-2.78-1.68-4.17-3.19-4.17C440.17,131.3,439.38,132,438.67,133.25Zm-6.12-7.43A1.89,1.89,0,0,0,431,125a2.31,2.31,0,0,0-1.7.87,3.16,3.16,0,0,0-.65,2v4h4.55v-4A3,3,0,0,0,432.55,125.82Zm-3.45,21.05a2.89,2.89,0,0,0-.65,1.95v4H433v-4a3.16,3.16,0,0,0-.7-2,2,2,0,0,0-3.2.07Zm3.9-8.45a3.08,3.08,0,0,0-.7-1.95,1.92,1.92,0,0,0-3.2.08,2.89,2.89,0,0,0-.65,1.95v3.95H433Zm-4.55,20.8v3.93H433v-4a3.08,3.08,0,0,0-.7-2,2,2,0,0,0-1.55-.83,2,2,0,0,0-1.65.83A3,3,0,0,0,428.45,159.22Zm44.55-2a2.09,2.09,0,0,0-1.67-.83,2,2,0,0,0-1.58.83,3,3,0,0,0-.65,2v3.93h4.6v-4A3.08,3.08,0,0,0,473,157.2Zm-23.62,0a2.94,2.94,0,0,0-.65,2v3.93h4.54v-4a2.88,2.88,0,0,0-.64-2,2,2,0,0,0-1.55-.83A2.06,2.06,0,0,0,449.38,157.2Zm-35.3-64.33v18.38h-29V92.87Zm-5,2.9H404.4v4.93h4.65ZM260.63,98.22a4,4,0,0,0,2.2,3.43,10.53,10.53,0,0,0,5.44,1.35,10.06,10.06,0,0,0,5.36-1.35,4.07,4.07,0,0,0,2.2-3.43,3.89,3.89,0,0,0-2.2-3.3,9.65,9.65,0,0,0-5.36-1.42,10.09,10.09,0,0,0-5.44,1.42A3.87,3.87,0,0,0,260.63,98.22Zm-7.78-6h30.8v-.67h-30.8Zm8.42-10.75h14V80.9h-14ZM224.52,109h-2v5.1h2Zm0,5.85h-2v4.9h2Zm1.63,6.22v6.55h2.58V121ZM213.88,109v5.1h2V109Zm2.94,0v5.1h2V109Zm2.88,0v5.1h2V109Zm-14.57,0v5.1h2V109Zm2.87,0v5.1h2.13V109Zm0,5.85v4.9h2.13v-4.9Zm-2.87,0v4.9h2v-4.9Zm-1,6.22v6.55h2.53V121Zm3.63,0v6.55h2.54V121ZM211,119.7h2v-4.9h-2Zm-6.73-4.9h-2v4.9h2Zm15.45,0v4.9h2v-4.9Zm-5.82,0v4.9h2v-4.9Zm1.3,6.22v6.55h2.5V121Zm3.59,0v6.55h2.55V121Zm-2-6.22v4.9h2v-4.9ZM211.38,121v6.55H214V121Zm1.64-7V109h-2v5.1Zm-8.77-5.1h-2v5.1h2Zm14.52,19.52V135h2.55v-6.5Zm-3.59,0V135h2.5v-6.5Zm1.37,7.5v8.13h3.27V136Zm5.88-1h2.62v-6.5h-2.62Zm-8.43-6.5h-2.62V135H214Zm-6.27,0V135h2.54v-6.5Zm-3.63,0V135h2.53v-6.5Zm-1.22,7.5v8.13H206V136Zm4.52,0v8.13h3.2V136Zm-4.47-7.5h-2.45V135h2.45Zm-.05,16.78v8.1H206v-8.1Zm4.52,0v8.1h3.2v-8.1Zm9.15,0v8.1h3.27v-8.1Zm-1.37-1.15V136H212v8.13Zm6,0h3.14V136h-3.14ZM212,145.25v8.1h3.16v-8.1ZM225.7,136v8.13H229V136Zm.45-7.5V135h2.58v-6.5Zm-.45,16.78v8.1H229v-8.1Zm4.65-1.15h3.15V136h-3.15Zm0,1.15v8.1h3.15v-8.1Zm-9.17,0v8.1h3.14v-8.1ZM202.93,121h-2.45v6.55h2.45Zm22.12,0h-2.62v6.55h2.62ZM193.6,109v5.1h2V109Zm2.9,0v5.1h1.93V109Zm2.85,0v5.1h2V109ZM189.43,121v6.55H192V121Zm9.92-6.22v4.9h2v-4.9Zm-5.75,0v4.9h2v-4.9Zm-.53,6.22v6.55h2.5V121Zm3.43-6.22v4.9h1.93v-4.9Zm.2,6.22v6.55h2.65V121Zm-30.3,16.6H132.85V146h35.22A79.61,79.61,0,0,0,166.4,137.62Zm-2.6-10.1h-31v8.33H166Zm29.27,1V135h2.5v-6.5Zm.61,7.5v8.13h3.14V136Zm4.57,0v8.13h3.2V136Zm1.1-1v-6.5H196.7V135ZM192,135v-6.5h-2.55V135Zm-7.48,1v8.13h3.15V136Zm4.52,0v8.13h3.28V136Zm-4.52,9.28v8.1h3.15v-8.1Zm4.52,0v8.1h3.28v-8.1Zm4.66,0v8.1h3.14v-8.1Zm4.57,0v8.1h3.2v-8.1Zm-4.9,10.3v9.55h5.47v-9.55Zm-6.58,0v9.55h5.53v-9.55ZM200,165.1h5.43v-9.55H200Zm26.15-9.55v9.55h5.38v-9.55Zm-1.17,0h-5.36v9.55h5.36Zm-11.91,0v9.55h5.38v-9.55Zm-6.52,0v9.55h5.4v-9.55Zm-38.07-7.85H132.85V156h36.7ZM323,102.87v-2.75a18.48,18.48,0,0,0-2.62,3.08V105A14.28,14.28,0,0,1,323,102.87Zm-2.8,4a26,26,0,0,0-3.68,4.63l-.32.45h-.32v.6h5v-6.3Zm-12.9,13.43v6.05h5.22v-5.75h-.19v-.3Zm13.6-.83v-5.77h-5v5.77Zm-5,1.13v5.75h5v-5.75Zm-31.25-9.88H280.5v8h4.13Zm2.27-6.32H249.18v1H286.9Zm-2.27,25H280.5v8.83h4.13Zm0,9.7H280.5v8.75h4.13Zm31.25-4.67v5.72h5v-5.72Zm0-6.93v5.8h5v-5.8Zm-8.58,0v5.8h5.22v-5.8Zm0,6.93v5.72h5.22v-5.72Zm5.22,12.67v-5.8H307.3v5.8Zm-5.22,1.13V154h5.22v-5.72Zm8.58-6.93v5.8h5v-5.8Zm0,6.93V154h5v-5.72ZM284.63,119.7H280.5v8.85h4.13Zm-9.93-8.93v8h4.22v-8Zm-11.4,0v8h4.2v-8Zm5.75,0v8h4.12v-8Zm0,8.93v8.85h4.12V119.7Zm-5.75,0v8.85h4.2V119.7Zm11.4,0v8.85h4.22V119.7Zm-17.1-8.93v8h4.13v-8Zm0,8.93v8.85h4.13V119.7ZM256,110.77h-4.1v8H256Zm-4.1,8.93v8.85H256V119.7Zm5.75,9.72v8.83h4.13v-8.83Zm-5.75,18.45H256v-8.75h-4.1Zm5.75-8.75v8.75h4.13v-8.75Zm-5.75-.87H256v-8.83h-4.1Zm22.85-8.83v8.83h4.22v-8.83Zm-11.4,0v8.83h4.2v-8.83Zm5.75,0v8.83h4.12v-8.83Zm0,9.7v8.75h4.12v-8.75Zm-5.75,0v8.75h4.2v-8.75Zm15.62,8.75v-8.75H274.7v8.75Zm-4.22.95v13.83h4.22V148.82Zm-11.4,0v13.83h4.2V148.82Zm5.75,0v13.83h4.12V148.82Zm11.45,13.83h4.13V148.82H280.5Zm-22.9-13.83v13.83h4.13V148.82Zm-10.25,17.75h41.9v-1.32h-41.9Zm8.6-3.92V148.82h-4.1v13.83Zm59.93-7.53v5.8h5v-5.8Zm-8.58,0v5.8h5.22v-5.8Zm5.22,6.88H307.3v2.52h5.22Zm3.36,0v2.52h5V162ZM89.38,95.32h.39a11,11,0,0,1,1,4.05c.14,1,.29,2.54.45,4.45H92.4v5.55H81.55v-5.55h1.1c.17-1.91.29-3.4.37-4.45a12.28,12.28,0,0,1,1.13-4.05h.33l2.5-18Zm43.47-9.82h11.4a97.33,97.33,0,0,0-6.62-8.23h-4.78Zm-1.55-8.23h-5.17V85.5h5.17Zm0,10h-5.17v8.3h5.17Zm-5.17,10.08v8.3h5.17v-8.3Zm6.72-1.78h17.78Q148,91,145.5,87.27H132.85Zm0,1.78v8.3h23l-4.18-8.3ZM119.6,76.75v84.62h3.65V76.75ZM2.05,85.12v2.6H0v-2.6ZM.6,84.62H0V82.35H.6ZM5,90.72H0V88.15H5ZM1,95.57v6.88H3V95.57ZM7.2,91.22v2.6H0v-2.6ZM4,95.57v6.88H6V95.57ZM78,114.8c-.79,0-1.28,1.38-1.45,4.15h3C79.35,116.18,78.84,114.8,78,114.8Zm-1.52,5,0,10.45h3.18V119.77Zm4-8.6H93.25l6.32,4.13v16.37H74.35V115.3Zm-27.65-9.72H49.77v2.62a3,3,0,0,0,2.08-.75A2.72,2.72,0,0,0,52.85,101.45ZM51.8,99.3a3.14,3.14,0,0,0-2-.83v2.68h3.08A2.68,2.68,0,0,0,51.8,99.3Zm-2.37,1.85v-2.6a3.15,3.15,0,0,0-2,.75,2.66,2.66,0,0,0-.93,1.85Zm0,.3H46.55a2.55,2.55,0,0,0,.93,1.75,2.69,2.69,0,0,0,2,.87ZM42.2,102.7H33.55v-2.2H42.2Zm5.53,7v2.55h2.09V109.7Zm2.42,7.17h2.23v-4.4H50.15Zm-.33,0v-4.4H47.73v4.4Zm.33-4.62h2.23V109.7H50.15Zm7.33,13.15a2.77,2.77,0,0,0-1.88,1.07,3.17,3.17,0,0,0-.72,2.08v0h2.6Zm.52,3.2h2.88l.07,0a3.27,3.27,0,0,0-.85-2.28,3.15,3.15,0,0,0-2.1-1Zm-7.12,0a3.52,3.52,0,0,0-3-3.23v3.28h3Zm0,.75h-3v5.47h3ZM58,134.77h2.88V129.3H58Zm-.52-5.47h-2.6v5.47h2.6Zm-11.91-2.9a3,3,0,0,0-.84,2.15v0h2.79v-3.2A2.78,2.78,0,0,0,45.57,126.4Zm-4.82,2.15a3,3,0,0,0-.8-2.08,2.59,2.59,0,0,0-1.9-1.07v3.2h2.7Zm0,.75h-2.7v5.47h2.7Zm4,0v5.47h2.79V129.3Zm.84,10.57a3.17,3.17,0,0,0-.84,2.2v.05h2.79v-3.25A2.82,2.82,0,0,0,45.57,139.87Zm2.36,2.25h3v-.05a3.33,3.33,0,0,0-3-3.2Zm-7.18-.05A3.15,3.15,0,0,0,40,140a2.65,2.65,0,0,0-1.9-1v3.17h2.7Zm0,.75h-2.7v5.5h2.7Zm4,5.5h2.79v-5.5H44.73Zm3.2,0h3v-5.5h-3ZM58,142.12h2.88l.07-.05a3.2,3.2,0,0,0-.85-2.25,3.15,3.15,0,0,0-2.1-.95ZM57.48,139a2.83,2.83,0,0,0-1.88,1,3.34,3.34,0,0,0-.72,2.12v.05h2.6Zm-2.6,9.37h2.6v-5.5h-2.6Zm3.12,0h2.88v-5.5H58Zm16.07-16.07H99.85V133H74.07Zm.28,1.32H99.57v2.33l5.06,2.35v7.82h2.5v5H90.57l-.07-9.45H83.63l-.2,9.45H66.77v-5h2.55v-7.82l5-2.35Zm3.8,2.2a2.48,2.48,0,0,0-.47,1.53l-.05,4.45h3.14V137.3a2.48,2.48,0,0,0-.47-1.53,1.5,1.5,0,0,0-1.1-.62A1.2,1.2,0,0,0,78.15,135.77ZM77.68,146l-.05,4.45h3.14V146a2.54,2.54,0,0,0-.47-1.6,1.52,1.52,0,0,0-1.1-.63,1.21,1.21,0,0,0-1,.63A2.54,2.54,0,0,0,77.68,146ZM26,101.57v2.5a3.57,3.57,0,0,0,2.09-.75,2.91,2.91,0,0,0,.91-1.75Zm2.15-2.27A3.72,3.72,0,0,0,26,98.47v2.8h3A2.68,2.68,0,0,0,28.13,99.3Zm-2.48,2.27H22.7a2.35,2.35,0,0,0,1,1.75,3,3,0,0,0,2,.75Zm-2.95-.3h2.95v-2.8a3.52,3.52,0,0,0-2,.9A2.38,2.38,0,0,0,22.7,101.27Zm3.8,8.43v2.55h2.27V109.7Zm-2.43,0v2.55h2.16V109.7Zm2.16,2.77H24.07v4.4h2.16Zm2.54,4.4v-4.4H26.5v4.4ZM1,103.37v6.9H3v-6.9Zm0,7.88v6.87H3v-6.87Zm3.07-1H6v-6.9H4Zm0,1v6.87H6v-6.87ZM4,119V126H6V119ZM1,119V126H3V119ZM17.8,128.6h2.8v0a3.08,3.08,0,0,0-.8-2.15,3.2,3.2,0,0,0-2-1.08Zm-2.48-2.2a3.08,3.08,0,0,0-.8,2.15v0h2.75v-3.28A2.8,2.8,0,0,0,15.32,126.4Zm1.95,8.37V129.3H14.52v5.47Zm.53,0h2.8V129.3H17.8ZM1.13,129.42H4.75v-1.65H1.13Zm0,.8v5.63H4.75v-5.63Zm16.67,8.65v3.25h2.8v-.05a3.28,3.28,0,0,0-.8-2.2A3.39,3.39,0,0,0,17.8,138.87Zm-2.48,1a3.28,3.28,0,0,0-.8,2.2v.05h2.75v-3.25A3,3,0,0,0,15.32,139.87Zm-.8,8.45h2.75v-5.5H14.52Zm3.28,0h2.8v-5.5H17.8Zm17.7-22a3.42,3.42,0,0,0-.85,2.28v0h2.9v-3.28A3.05,3.05,0,0,0,35.5,126.27Zm-4.82,2.28a3,3,0,0,0-.86-2.15,3,3,0,0,0-2-1.08v3.28h2.88Zm6.87,6.22V129.3h-2.9v5.47Zm-6.87-5.47H27.8v5.47h2.88Zm-3.41-3.9a3.21,3.21,0,0,0-2,1,3.11,3.11,0,0,0-.78,2.15l.08,0h2.67Zm0,9.37V129.3H24.6v5.47Zm.53,4.1v3.25h2.88v-.05a3.14,3.14,0,0,0-.86-2.2A3.21,3.21,0,0,0,27.8,138.87Zm-.53,0a3.26,3.26,0,0,0-2,1,3.31,3.31,0,0,0-.78,2.2l.08.05h2.67Zm-2.67,9.45h2.67v-5.5H24.6Zm3.2,0h2.88v-5.5H27.8Zm9.75-9.45a2.92,2.92,0,0,0-2,.95,3.2,3.2,0,0,0-.85,2.25v.05h2.9Zm-2.9,9.45h2.9v-5.5h-2.9ZM27.88,164H23.8v-9.1H18.07V164H11.45V162.9H11v1.67H64.4v0h43.67v-.6H65.85v.1H57.4v-9.1H51.68V164h-4v-9.1H41.93V164H33.6v-9.1H27.88Zm4.62-8H28.93v7H32.5Zm-9.35,7.4h-4.4v-7.78h4.4Zm-.4-7.53h-3.6v7.23h3.6Zm10.13-.32v7.85H28.52v-7.85Zm45.27-1.38a2.51,2.51,0,0,0-.47,1.58l-.05,4.47,3.14-.05v-4.42a2.51,2.51,0,0,0-.47-1.58,1.52,1.52,0,0,0-1.1-.65A1.21,1.21,0,0,0,78.15,154.17Zm-11.58-2.5H83.5v.55H66.57Zm-13.87,4.2V163h3.62v-7.15Zm4-.32v7.85H52.32v-7.85Zm-9.68,0v7.85H42.65v-7.85Zm-4,.32V163h3.58v-7.15ZM11.65,151H64V124.12H11.65Zm.58-26.4h51.2l0,25.83H12.23Zm21.9-24.45L37.8,73.55l3.6,26.57Zm122.47,7.3H132.85v8.3h27.08Q158.7,112.3,156.6,107.42Zm-30.47,8.3h5.17v-8.3h-5.17Zm0,1.78v8.27h5.17V117.5Zm0,18.35h5.17v-8.33h-5.17Zm5.17,1.77h-5.17V146h5.17Zm-5.17,10.08V156h5.17v-8.3Zm6.72-21.93H163.4l-2.83-8.27H132.85ZM92.68,110.65H81.35v-.83H92.68ZM87,101.32a2.77,2.77,0,0,0-2.1.88,2.62,2.62,0,0,0-.86,2,2.7,2.7,0,0,0,.86,2,2.77,2.77,0,0,0,2.1.88,2.6,2.6,0,0,0,2-.88,2.63,2.63,0,0,0,.9-2,2.56,2.56,0,0,0-.9-2A2.71,2.71,0,0,0,87,101.32Zm-6,18.45L81,130.22h3.12V119.77Zm3-.82a10.58,10.58,0,0,0-.57-3c-.32-.78-.65-1.17-1-1.17-.85,0-1.34,1.38-1.48,4.15Zm12.83-3c-.3-.78-.63-1.17-1-1.17-.87,0-1.37,1.38-1.5,4.15h3A15.33,15.33,0,0,0,96.9,116Zm-2.47,3.8-.05,10.45h3.07V119.77Zm-3-5c-.87,0-1.37,1.38-1.5,4.15h3C92.78,116.18,92.27,114.8,91.48,114.8Zm-1.58,5-.05,10.45h3.2V119.77Zm3.8,16a2.61,2.61,0,0,0-.45,1.53l-.07,4.45h3.2V137.3a2.61,2.61,0,0,0-.45-1.53,1.47,1.47,0,0,0-1.11-.62A1.37,1.37,0,0,0,93.7,135.77Zm-3.4,4.78a13.68,13.68,0,0,0-1.17-4.33c-.62-1.1-1.32-1.65-2.11-1.65s-1.4.55-2,1.65a12.81,12.81,0,0,0-1.3,4.33Zm5.63,3.8a1.49,1.49,0,0,0-1.11-.63,1.38,1.38,0,0,0-1.12.63,2.66,2.66,0,0,0-.45,1.6l-.07,4.45h3.2V146A2.66,2.66,0,0,0,95.93,144.35Zm11.45,7.82H90.57v-.57h16.81Zm-13.68,2a2.64,2.64,0,0,0-.45,1.58l-.07,4.47,3.2-.05v-4.42a2.64,2.64,0,0,0-.45-1.58,1.48,1.48,0,0,0-1.11-.65A1.38,1.38,0,0,0,93.7,154.17Z"/></svg>