<?xml version="1.0" ?><svg enable-background="new 0 0 64 64" height="64px" id="Layer_1" version="1.1" viewBox="0 0 64 64" width="64px" xml:space="preserve" xmlns="http://www.w3.org/2000/svg" xmlns:xlink="http://www.w3.org/1999/xlink"><circle cx="32" cy="32" fill="#76C2AF" r="32"/><path d="M32,39.799c9.2,0,9.55,3.051,13,6.102c3.45,3.051,10,4.063,10-6.102  c0-10.166-4.6-16.273-4.6-16.273S46,16,40,21.885c-4.274,4.192-11.726,4.192-16,0C18,16,13.6,23.527,13.6,23.527S9,29.634,9,39.799  c0,10.166,6.55,9.154,10,6.102C22.45,42.851,22.8,39.799,32,39.799z" fill="#231F20" opacity="0.2"/><path d="M32,36.799c9.2,0,9.55,3.051,13,6.102c3.45,3.051,10,4.063,10-6.102c0-10.166-4.6-16.273-4.6-16.273  S46,13,40,18.885c-4.274,4.192-11.726,4.192-16,0C18,13,13.6,20.527,13.6,20.527S9,26.634,9,36.799c0,10.166,6.55,9.154,10,6.102  C22.45,39.851,22.8,36.799,32,36.799z" fill="#4F5D73"/><circle cx="44" cy="34" fill="#E0E0D1" r="2"/><circle cx="48" cy="29" fill="#E0E0D1" r="2"/><path d="M19,35.495C19,36.326,18.328,37,17.5,37l0,0c-0.828,0-1.5-0.674-1.5-1.505v-6.991  C16,27.674,16.672,27,17.5,27l0,0c0.828,0,1.5,0.674,1.5,1.505V35.495z" fill="#E0E0D1"/><path d="M14.005,33.5c-0.831,0-1.505-0.672-1.505-1.5l0,0c0-0.828,0.674-1.5,1.505-1.5h6.991  c0.831,0,1.505,0.672,1.505,1.5l0,0c0,0.828-0.674,1.5-1.505,1.5H14.005z" fill="#E0E0D1"/></svg>