<?xml version="1.0" encoding="utf-8"?>
<!-- Generator: Adobe Illustrator 23.0.1, SVG Export Plug-In . SVG Version: 6.00 Build 0)  -->
<svg version="1.1" id="Layer_1" xmlns="http://www.w3.org/2000/svg" xmlns:xlink="http://www.w3.org/1999/xlink" x="0px" y="0px"
	 viewBox="0 0 420 420" enable-background="new 0 0 420 420" xml:space="preserve">
<g>
	<circle fill="#F0CF65" cx="210" cy="210" r="210"/>
</g>
<g>
	<path fill="#BD4F6C" d="M261.2,391h-9.8C194.85,391,149,345.15,149,288.6V131.4C149,74.85,194.85,29,251.4,29h9.8
		c5.96,0,10.8,4.84,10.8,10.8v340.4C272,386.16,267.16,391,261.2,391z"/>
</g>
<g>
	<path fill="#93B5C6" d="M159.8,391h9.8c56.55,0,102.4-45.85,102.4-102.4V131.4C272,74.85,226.15,29,169.6,29h-9.8
		c-5.96,0-10.8,4.84-10.8,10.8v340.4C149,386.16,153.84,391,159.8,391z"/>
	<circle cx="200.5" cy="312.5" r="31.5"/>
	<circle cx="227" cy="125" r="16"/>
	<circle cx="185" cy="99" r="16"/>
</g>
</svg>
