<svg xmlns="http://www.w3.org/2000/svg" xmlns:xlink="http://www.w3.org/1999/xlink" width="512" height="256" viewBox="0 0 512 256"><defs><style>.a,.b,.c,.d,.e,.g{fill-rule:evenodd;}.a{fill:url(#a);}.b{fill:#9ed5e6;}.c{fill:url(#b);}.d{fill:url(#c);}.e{fill:url(#d);}.f{fill:url(#e);}.g{fill:#b4deeb;}</style><linearGradient id="a" x1="256" y1="172.04" x2="256" y2="24" gradientUnits="userSpaceOnUse"><stop offset="0" stop-color="#dff"/><stop offset="1" stop-color="#60acce"/></linearGradient><linearGradient id="b" x1="419.48" y1="99.01" x2="419.48" y2="77.13" xlink:href="#a"/><linearGradient id="c" x1="248.28" y1="172.04" x2="248.28" y2="24" xlink:href="#a"/><linearGradient id="d" x1="166.91" y1="99.01" x2="166.91" y2="77.13" xlink:href="#a"/><linearGradient id="e" x1="132.7" y1="96.38" x2="132.7" y2="69.26" xlink:href="#a"/></defs><title>Artboard 2</title><path class="a" d="M132.38,86.57V88h1.77v1.15h1L135.8,87v-.38l2.83-10.35h-1.31v-.55h-1.47V74.55h3.58l3.42-9h-.53V64.37h.2l-.37-2.12h-.83v-.38h.23c-.22-.55.08-1.16.88-1.85a3.9,3.9,0,0,0,1.3-1.75v-.45a.41.41,0,0,1-.21,0,.46.46,0,0,1-.07-.25.34.34,0,0,1,.07-.17.48.48,0,0,1,.21-.13v-2.5h.32v2.5a.51.51,0,0,1,.13.13c.09.06.14.12.14.17a.3.3,0,0,1-.14.25.21.21,0,0,1-.13,0v.68a4.48,4.48,0,0,0,.35.65,3.36,3.36,0,0,0,1.23,1.2c.61.46.75,1,.39,1.52h.25v.38h-.64l-.33,2.12h.27v1.18h-.27l3.83,9h1.17v1.12h-.9v.55h-.27l.75,2.28a9,9,0,0,0,1.52-2.65,2.36,2.36,0,0,1-.55-.18.55.55,0,0,1-.28-.42.58.58,0,0,1,.28-.43l.08,0v-.1h.42V72.2h-.6V72h.6v-.6h.28V72H152v.23h-.37v2.5h.52v.12a.58.58,0,0,1,.28.43.55.55,0,0,1-.28.42.67.67,0,0,1-.3.08,10.19,10.19,0,0,0,4,4.72,3,3,0,0,1,1.38,2.28A6.92,6.92,0,0,1,158.9,81a9.2,9.2,0,0,0,3-4.32V76a1.21,1.21,0,0,1-.6-.15.41.41,0,0,1-.25-.38c0-.11.08-.23.25-.35a1,1,0,0,1,.6-.2v-.82h-.55v-.23H162v-.6h.28v.6h.42v.23h-.42v.87l.37.15c.18.12.28.24.28.35a.42.42,0,0,1-.28.38l-.37.15v.87a10.59,10.59,0,0,0,4,4.78c1.52,1.16,1.81,2.41.87,3.72h.2V86h-1.72v6h1.68v-1.9H167v-.6h1.82v1.52H171v-5.6h-.12v-1.2H171V81.6h1.73v-.48h.54v-1h.83v-2.5h1.08v2.5h1.14V72.62h-.22v-1h.38V70h.77v1.63h.52V69.8h1.28v-4c0-.27.3-.49.8-.68v-1h.5V63.6h.8v-.7h-.52V61.55h.6V57.07h.2l-.2,2h1.2l-.08-2h.08v4.48H183V62.9h-.52v.7H183v.55h.5v1a.21.21,0,0,1,.15,0c.45.19.71.41.78.68v4h1.14v1.85h.66V70H187v1.63h.36v1H187v7.53h1.16V77.47h1v2.68h1.2v1h.6v.48h1.43v9.47h2.45v-1.8h2.22v1.8h2.6V88.22h2v-1.5h1.65V73l-.1-1.4a8.54,8.54,0,0,1,1.05-3.17,6.17,6.17,0,0,1,1.9-2.2,6,6,0,0,1,2.17,2.35l-.12.67a20.83,20.83,0,0,1,2.25-5.92,11.67,11.67,0,0,1,3.2-4v-.08c-.3-.06-.45-.28-.45-.65s.12-.51.37-.57a.44.44,0,0,1-.12-.3c0-.27.11-.4.32-.4s.33.13.33.4a.43.43,0,0,1-.15.3.51.51,0,0,1,.4.57c0,.37-.15.59-.45.65v.08a9,9,0,0,1,2.83,2.95,19.09,19.09,0,0,1,2.32,5,20.42,20.42,0,0,1,1-2.9,11.79,11.79,0,0,1,1.33-2.2V58.72c-.27-.06-.41-.26-.41-.6a.62.62,0,0,1,.36-.62.44.44,0,0,1-.13-.3c0-.25.11-.38.32-.38s.33.13.33.38a.4.4,0,0,1-.15.3.62.62,0,0,1,.38.62.54.54,0,0,1-.43.6v3.53a9.94,9.94,0,0,1,2.4,4.42A17.76,17.76,0,0,1,226.45,62,8.26,8.26,0,0,1,229,59.35v-.08c-.28-.06-.42-.28-.42-.65a.51.51,0,0,1,.38-.57.44.44,0,0,1-.13-.3c0-.27.11-.4.33-.4s.3.13.3.4a.45.45,0,0,1-.13.3.51.51,0,0,1,.38.57c0,.37-.15.59-.43.65v.08a12.32,12.32,0,0,1,3.2,4,20.35,20.35,0,0,1,2.1,5.28,6.19,6.19,0,0,1,2.2-2.35,6.48,6.48,0,0,1,1.9,2.2,8.54,8.54,0,0,1,1.05,3.17L240,73v13.7h1.68v1.5h1.37V86.57h.2V83.2h.15l-.33-1.33h0v-.42h0v-.28h.28v.28h.47v-.28h.23v.28h.45v-.28h.25v.28h.45v-.28h.23v.28h.47v-.28h.33v.28l.42,0v.1l-.15.32h-.23l-.47,1.38h.1v.52l.55-.65.32.38V83h.5V82.1h-.62v-.5h.62V77.52h-1.2V75.15h1.2l0-1.65h-.67V73h.67v-1.3h-.55v-.38h.55v-1.8h-.67V69.2h.67v-2h2.13l.05,2h.85v.27h-.85l.1,1.8h.88v.38h-.88l.05,1.3h.83v.55h-.83l0,1.65h1.53v2.37h-1.46l.16,4.08h.55v.5h-.55l0,.87h.67v.5H250l0,1.4h1.16v-3h.59v-2h.43v2h.35v-2.1h.38v2.1h.64v3h1.73v4.68h.93v.12l.35.2V87.22h1.3V85.15h.42v2.07h.4V83.07h1.68v-.52h.54v-.93h.88v-2.5h1v2.5H264V74.1h-.27v-1h.42V71.45h.73v1.67h.52V71.27h1.31V67.35h0c0-.29.28-.52.75-.7v-1h.5v-.55h.85v-.75h-.58V63.05h.65v-2h1.18v2h.55v1.27h-.55v.75h.55v.55h.5v.48h1.15V64h2.1V66.1h.35V64.2h1.55V63.05h1.15V58.92H276.3v-.47H276c-.6-1.2-.06-2.44,1.65-3.73a8.25,8.25,0,0,0,2.27-2.82c-.15-.07-.31-.15-.48-.25a.56.56,0,0,1-.32-.5.62.62,0,0,1,.32-.5,1.25,1.25,0,0,1,.66-.23V48.2h-.88v-.28h.88v-.37h.37v.37h.5v.28h-.5v2.22a1.19,1.19,0,0,1,.65.23h0a.61.61,0,0,1,.33.5.56.56,0,0,1-.38.5,1.33,1.33,0,0,0-.22.15,8.13,8.13,0,0,0,3,3.42q2,1.58.66,3.28h-.16v.42H283.1v4.13h1.75V64.2h1L286.5,62V61.6l2.83-10.4H288v-.5h-1.47V49.52h3.58l3.42-9H293V39.4h.21l-.38-2.13H292v-.42h.23c-.25-.55,0-1.15.88-1.8a3.93,3.93,0,0,0,1.29-1.75v-.48a.73.73,0,0,1-.19-.07.32.32,0,0,1-.08-.23.3.3,0,0,1,.08-.2l.19-.1V29.75h.33v2.47a.45.45,0,0,0,.13.1.23.23,0,0,1,0,.43l-.13.07v.7a3.82,3.82,0,0,0,1.58,1.8c.61.5.75,1,.4,1.53H297v.42h-.65L296,39.4h.27v1.15H296l3.83,9H301V50.7h-.9v.5h-.27l.75,2.27a8.18,8.18,0,0,0,1.52-2.6,1.59,1.59,0,0,1-.55-.22.45.45,0,0,1-.28-.38.55.55,0,0,1,.28-.42l.08-.08v-.1h.42V47.22h-.6V47h.6v-.65h.28V47h.37v.22h-.37v2.45h.52v.18a.55.55,0,0,1,.28.42.45.45,0,0,1-.28.38l-.3.12a10.78,10.78,0,0,0,3.95,4.73,2.93,2.93,0,0,1,1.38,2.22A7.51,7.51,0,0,1,309.6,56a9.21,9.21,0,0,0,3-4.38V51a1.21,1.21,0,0,1-.6-.15.46.46,0,0,1-.25-.37.48.48,0,0,1,.25-.4,1.21,1.21,0,0,1,.6-.15v-.83h-.55v-.22h.55V48.2h.27v.65h.43v.22h-.43V50a.8.8,0,0,1,.38.1.49.49,0,0,1,.28.4c0,.13-.1.26-.28.37a.8.8,0,0,1-.38.1v.88a10.57,10.57,0,0,0,4,4.8q2.28,1.73.87,3.7H318v.75h-1.73v6h1.67v-1.9h-.25v-.55h2.75V59.85h1.16v-3h.65v-2h.37v2H323V54.75h.43V56.9H324v3h1.68v4.72h.93v.08l.39.2v-2.6h1.25V60.12h.43v2.13h.7V60.12h.35v2.13h1.58v3.57l.65.28H342.7V64h2.1V66.1h2.72V56.57h1.65V56.1h.63v-.93h.83v-2.5h1v2.5h1.18V47.6h-.27v-1h.4V45h.79v1.62h.46v-1.8h1.35v-4c0-.26.27-.49.72-.67v-1l.53-.2.69-10.85h0l-.32-.6a1,1,0,0,0-.23.13v-.43c.23-.08.45-.16.65-.25h1.2a4.81,4.81,0,0,1,.7.25v.43l-.15-.13-.4.6L359.6,39a3.41,3.41,0,0,0,.55.2v1a1.16,1.16,0,0,1,.75.67v4h1.15v1.8h.65V45h.78v1.62h.37v1h-.37v7.57h1.15V52.5h1v2.67h1.2v.93h.65v.47H369V66.1h2.45V64.3h2.2v1.8h2.48v-.65H377V59.1h4.22v6.35h.88v2.92h3.12V65.45H386V59.1h4.28v6.35h.83V84.17H392V82.1h.5V80.35h.28V82.1h.53V80.35h.27V82.1h1.15v2.07h1.52v5.38h1.21V88l-.6-.1v-.17a1.07,1.07,0,0,0,.6-.65h-.28v-.33H397v-1.9h1.43V86h.22V80.85h.66v3.7s0,0,.09,0v0h.06a2.06,2.06,0,0,0,.5-.33V82.7h.92v.65a3.62,3.62,0,0,0,.65-.88v-.1h-.22V82.2h.22v-.38h1V80.57h-.19v-.32h.19V77.9H402a8.1,8.1,0,0,0,2.57-2.5,2.7,2.7,0,0,0,.43-.7,1.88,1.88,0,0,0,.12-.48.78.78,0,0,0,.15.33.25.25,0,0,0,.05.15,3.47,3.47,0,0,0,.45.7,6.13,6.13,0,0,0,1.85,1.7v-.28h-.33v-.17h.33v-1h.15v1H408v.17h-.27v.43c.25.15.49.28.73.4V76.4h.42V75h-.32l.05-.1a4.82,4.82,0,0,0,1.7-1.57,3.64,3.64,0,0,0,.32-.78.49.49,0,0,1,.05.18c.1.21.21.41.32.6A5.53,5.53,0,0,0,413.15,75h-.5v8.1h1.2V80h-.6l1.08-1.3V77.27h.5V78L416,76.55,419.3,80h-.4v4.85h.4v1.7h.43V83.2h.17l-.3-1.33h-.2l-.1-.42h.15v0l.05,0h.1v-.28h.28v.28h.39v-.28h.28v.28H421v-.28h.23v.28h.48v-.28H422v.28h.45v-.28h.27v.28l.43,0v.1l-.1.32h-.23l-.44,1.38h.07v.52l.58-.65.32.38V83h.45V82.1h-.65v-.5h.65V77.52H422.6V75.15h1.2l.05-1.65h-.75V73h.75v-1.3h-.55v-.38h.55v-1.8h-.75V69.2h.75v-2h2.07l.1,2h.83v.27H426l.08,1.8h.9v.38h-.9V73h.9v.55h-.85l.05,1.65h1.47v2.37H426.3l.08,4.08H427v.5h-.62l0,.87h.75v.5h-.69v1.4h1.15v-3h.64v-2h.38v2H429v-2.1h.43v2.1h.65v3h1.65v4.68h.92v.12l.43.2V87.22h1.3V85.15h.35v2.07h.65V85.15h.43v2.07h1.52v3.63l.7.22h10.72V89h2.08v2.07h.42v-1.9h1.53V88H454V83.9H452.8v-.43h-.38q-.87-1.8,1.73-3.77a7.33,7.33,0,0,0,2.25-2.83.93.93,0,0,1-.45-.2.64.64,0,0,1-.32-.55.61.61,0,0,1,.32-.5,1,1,0,0,1,.65-.2v-2.2h-.87V73h.87v-.43H457V73h.47v.27H457v2.2a1.09,1.09,0,0,1,.65.2h0v0a.53.53,0,0,1,.27.45.64.64,0,0,1-.32.55.86.86,0,0,0-.22.15,8.35,8.35,0,0,0,3,3.43c1.34,1,1.56,2.11.66,3.27H461v.38h-1.4V88h1.75v1.15h1.08L463,87v-.38l2.87-10.35H464.5v-.55h-1.42V74.55h3.55l3.37-9h-.45V64.37h.12l-.32-2.12h-.87v-.38h.27c-.25-.55,0-1.16.88-1.85a3.88,3.88,0,0,0,1.29-1.75v-.45a.35.35,0,0,1-.17,0,.29.29,0,0,1-.15-.25c0-.05,0-.11.15-.17a.69.69,0,0,1,.17-.13v-2.5h.28v2.5a.46.46,0,0,1,.2.13c.08.06.12.12.12.17a.3.3,0,0,1-.12.25.37.37,0,0,1-.2,0v.68a4.38,4.38,0,0,0,1.57,1.85c.62.46.78,1,.48,1.52h.17v.38h-.59l-.38,2.12h.28v1.18h-.28l3.9,9h1.1v1.12h-.82v.55h-.28l.73,2.28a9,9,0,0,0,1.52-2.65,2.21,2.21,0,0,1-.6-.18.56.56,0,0,1-.23-.42.6.6,0,0,1,.23-.43l.15,0v-.1h.43V72.2H478V72h.63v-.6h.27V72h.35v.23h-.35v2.5h.45v.12a.58.58,0,0,1,.28.43.55.55,0,0,1-.28.42.37.37,0,0,1-.22.08A10,10,0,0,0,483,80.47a3,3,0,0,1,1.45,2.28A6.22,6.22,0,0,1,486.05,81a14,14,0,0,0,1.05-1,9.25,9.25,0,0,0,2-3.37V76a1.21,1.21,0,0,1-.6-.15.41.41,0,0,1-.22-.38.48.48,0,0,1,.22-.35,1,1,0,0,1,.6-.2v-.82h-.6v-.23h.6v-.6h.27v.6h.38v.23h-.38v.87a2.15,2.15,0,0,1,.38.15.48.48,0,0,1,.22.35.41.41,0,0,1-.22.38,2.15,2.15,0,0,1-.38.15v.87a10.67,10.67,0,0,0,4,4.78c1.52,1.16,1.82,2.41.9,3.72h.18V86h-1.71v6h1.65v-1.9h-.27v-.6h2.73V84.87h1.2v-3h.59v-2h.43v2h.38v-2.1h.4v2.1h.64v3h1.68v4.68h.93v.12l.42.2V87.22h1.25V85.15h.4v2.07h.65V85.15h.38v2.07h1.57v3.63l.7.22H512V256H0V91.07H7.27V89H9.35v2.07h1.2v-4.5h1.9V75.75h0v-1.7h.65v-1.3H14V72h1.47V49.7c3.2,0,4.8,0,4.8,0V72h.32l0-8.75H32.85V72h.33V49.7H38V72h1.46v.8h.92v1.3h.65V86.57h1v-2.2h2.77v2.2H57.88V86.5l.77-.58V82.7h1.62V80.62h.46V79.37h.32v1.25h.65V79.45H62v1.17h.48V82.7h1.8v2l1.9,0V78h1.48V75.4h.64V73.25h.33V75.4h.65V73.25h.33V75.4H71V78h2v6.65h1.48V82.75l-.73,0v-.23a1.21,1.21,0,0,0,.73-.87H74.1v-.38h-.28V78.85h1.81V80.3h.27V73.87h.8V78.5a.13.13,0,0,1,.12,0v0h.06a7.43,7.43,0,0,1,.69-.43v-1.8h1.11V77a4.75,4.75,0,0,0,.8-1.07v-.15h-.33v-.23h.33v-.4h1.2V73.55h-.23v-.43h.23V70.2H80l.54-.36a8.89,8.89,0,0,0,2.71-2.74,3.34,3.34,0,0,0,.5-.88,1.23,1.23,0,0,0,.15-.55,1.59,1.59,0,0,0,.22.43.17.17,0,0,0,.05.12,2.65,2.65,0,0,0,.55.88A7.74,7.74,0,0,0,87,69.25v-.38H86.6v-.25H87v-1.2h.17v1.2h.37v.25h-.37v.55a9.16,9.16,0,0,0,.92.5h.06V68.35h.5V66.6h-.45s0,0,.07-.1a6.51,6.51,0,0,0,2.1-2,3.69,3.69,0,0,0,.4-1,.48.48,0,0,1,.1.27,2.51,2.51,0,0,0,.42.7,6.69,6.69,0,0,0,2.58,2.08h-.6V76.65h1.48V72.9h-.68l1.27-1.68V69.47H96v.93l1.45-1.85,4.07,4.35H101v5.95h.52V81h.55V76.82h.18l-.43-1.7-.12,0-.16-.5h.28v-.33h.38v.33h.55v-.33H103v.33h.61v-.33h.27v.28h.6v-.28h.27v.28h.55v-.28h.38v.28l.5,0v.15l-.13.42h-.27l-.6,1.7h.12v.65l.7-.82.43.45v-.55h.6V75.4h-.85v-.6h.85v-5h-1.5V66.82h1.52v-2h-.87v-.7h.87V62.47h-.62V62h.62V59.75h-.87v-.33h.87l.06-2.57h-.93v-2h.48v-.15h-1.53v-.5h1.53v-.33h-1.53v-.6h1.53V53h-1.13V52.3h1.13v-.45h-1.13V51.2h1.13v-.83H107V48h.45v-.08h-.77V47.5h.77l.1-3.75h-.18v-1H107v-.35h.6l.1-4.17H107v-.38h.32v-.4h.33V34.77h-.52v-.32h.42V34h.13l0-2.65h-.5V30.9h.27v-.23h.23l.15-3.07h.27l.1,3.07h0v.23h.4v.45h-.45l0,2.65h.22v.45h.5v.32h-.72l0,2.65h.28v.4H109v.38h-.64l.05,4.17h.8v.35h-.58v1h-.13l0,3.75h1.75v.42h-1.75V48h.73v2.37h.43v.83h1.34v.65h-1.34v.45h1.34V53h-1.34v.37h1.52v.6h-1.52v.33h1.52v.5h-1.52v.15h.65v2h-.61l0,2.57h1v.33h-1L109.9,62h1.17v.5H109.9l0,1.63h1.12v.7H110l0,2h1.85v2.93h-1.72l.14,5h.75v.6h-.75l.06,1.15h.87v.65h-.87l.05,1.65h1.42v-3.7h.78v-2.5h.52v2.5h.4V72.57h.52v2.58h.78v3.7H117v5.82h1.15v.15l.5.23V81.82h1.58V79.17h.5v2.65h.84V79.17H122v2.65h2v4.43l.82.32h2V83.9H125.6v-.43h-.33q-.88-1.8,1.66-3.77a7.68,7.68,0,0,0,2.27-2.83,1.44,1.44,0,0,1-.47-.2.65.65,0,0,1-.33-.55.63.63,0,0,1,.33-.5,1.09,1.09,0,0,1,.65-.2v-2.2h-.83V73h.83v-.43h.42V73h.45v.27h-.45v2.2a1,1,0,0,1,.6.2h0v0a.51.51,0,0,1,.32.45.64.64,0,0,1-.37.55.53.53,0,0,0-.22.15,8.37,8.37,0,0,0,3,3.43c1.31,1,1.53,2.11.65,3.27h-.15v.38h-1.35Zm355.79.65v1.85h1.08V87.22Zm1.46,3.2h.27V89.6h-.27ZM486,86h-2.08v-.7h-1.25v6.73h2.13V89.92H486Zm-61.2-42.5.05,2.5h.1v.18h.32v.37h-.37V48.7h.18v.37h.42v.28H425v2.07h.18v.38h.37v.27H425l0,3.38h.61v.27h-.4v.85h-.15l.05,3h1.42v.33h-1.42V60h.6v1.87h.32v.65h1.08v.55h-1.08v.38h1.08V64h-1.08v.28h1.25v.5h-1.25V65h1.25v.43h-1.25v.1h.55V67.1h-3.37V65.55h.37v-.1h-1.25V65h1.25v-.27h-1.25v-.5h1.25V64h-.87v-.52h.87v-.38h-.87v-.55h.87v-.65h.17V60h.43v-.1h-.65v-.33h.65l.1-3h-.2v-.85h-.27v-.27h.47l.08-3.38h-.5V51.8h.22v-.38h.28V49.35H424v-.28h.28V48.7h.12l.06-2.13h-.43V46.2h.25V46h.18l0-2.5ZM417,80.42h-.1a1.47,1.47,0,0,0-.6.15v.23h1a.53.53,0,0,0-.17-.23Zm-.78.2a.77.77,0,0,1-.19.08s0,.06-.06.1h.25Zm1.06,1.25a1,1,0,0,0,.15-.2h-1.13v.65a.37.37,0,0,0,.2,0,1.25,1.25,0,0,0,.4-.07,1.29,1.29,0,0,1,.25-.2A.39.39,0,0,1,417.23,81.87Zm.22-.6a1.11,1.11,0,0,0-.07-.37h-1.13v.65h1.17A1.41,1.41,0,0,0,417.45,81.27Zm.25,2.25h.45v-.4h-.45Zm-1.85-2.62a.74.74,0,0,0-.2.5v.15h.52V80.9Zm-.15.77a.84.84,0,0,0,.28.43l.19.1v-.53Zm1.75,2.6v.55h.65v-.55Zm-.87.28v-.38h-.38v.38Zm-.41-1.43v.4h.46v-.4ZM419,85.85V85h-.08v.85Zm4.4-2.38.37.48v-.48Zm-2.83.28h-.28v.92h.28Zm1,1v-1h-.22v1ZM420.27,83h.21l-.15-1.1h-.18Zm.88-1.1h-.32V83h.3Zm.93,0h-.33l-.17,1.1h.22Zm.37,4.58-.05,0s0,.06-.07.12h.72v-.4A.92.92,0,0,0,422.45,86.45Zm1.25-.1a1,1,0,0,0-.5-.13v.4h.55v-.27Zm-17-7.78v.88h1v-.88Zm5.54,1.68h-.64v.45h.64Zm-.64-1.8V78h-.46v.43Zm.92-.38h-.45v.43h.45Zm-1.25-1.25h-.5v.43h.5Zm1.25,0h-.45v.43h.45ZM408.2,77.9v2.35h.28V77.9Zm0,2.67v1a2.46,2.46,0,0,0,.28.27v.05l.1.08v-.13c0-.21-.07-.46-.1-.75v-.5Zm0,1.2v1.58h.7V83h-.32v-.82l-.1-.1a.57.57,0,0,0-.23-.23Zm-.5-.5V80.9h-.43v.37Zm2.22,1.2v-.15s0,.08,0,.23C409.88,82.5,409.89,82.47,409.92,82.47Zm.66.08v-.28h-.33v.28Zm2-.68v-.42h-.45v.42Zm-5.68,1.2V82.7h-.47v.37Zm5.5,1v.82h.13v-.82Zm.13,1h-.05v.85h.05Zm11.2,1.77h-.55v.45h.55Zm-.7,0h-.82a.46.46,0,0,0-.06.28v.17h.88Zm.15,1.15h.13a.65.65,0,0,0,.32-.1.3.3,0,0,1,.1-.07v-.38h-.55Zm-.15-.55h-.82a.11.11,0,0,0,.1,0v.08l.12.15v0a.45.45,0,0,1,.22.12.83.83,0,0,0,.38.1Zm-2.53-.7a.72.72,0,0,0,0,.28v.2h.44v-.1a.53.53,0,0,1,.16-.38Zm35,5.88v1h1.08v-1Zm-.22-8.33h-.5v.93h.5ZM457,86.57h-.5v.65h.5Zm12.68-14.92v2h1.57v-2Zm1.29-7.93V62.35h-.65v1.37Zm1-1.27h-.5V63.7h.5ZM461.67,91.77h-.37v.28h.33ZM357.23,62.45v-.3h-.33v.3Zm6.94,1.75v.55h.6V64.2Zm-1.29-.1v.37h.42V64.1Zm1.47-1v.35h.53v-.35Zm-1,.35v-.35h-.52v.35Zm-10.18-.78V63h.41v-.38Zm1.25-3.25V58.5h-1v.87Zm4.91,2h-.48v.43h.48ZM359,60.12h-.6v.5h.6Zm-4.53,1.08v-.38H354v.38Zm4.91-3.2h-.53v.42h.53Zm-1.5,0v.42h.52V58Zm.19-1.2h-.5v.42h.5Zm1.25,0h-.52v.42h.52ZM471.85,84.27h-.55v1.2h.55Zm-1.93-3.42h-.57v.75h.57Zm-2.5-3h-1.29v2.62h1.29ZM376.6,88.3v2h2v-2Zm4.95,2v-2h-2v2Zm0-4.8h-2v2h2Zm-2-5.55v2h2V80Zm0,2.78v2h2v-2Zm-.87,2.77h-2v2h2Zm0-2.77h-2v2h2Zm0-2.78h-2v2h2Zm-2-2.77v2.07h2V77.2Zm2-.7V74.42h-2V76.5Zm2.9,2.77V77.2h-2v2.07Zm0-2.77V74.42h-2V76.5Zm-2-10.38v2h2v-2Zm0,5.53v2.07h2V71.65Zm-2.92,0v2.07h2V71.65Zm2-.68V68.9h-2V71Zm.87-2.07V71h2V68.9Zm-.87-2.78h-2v2h2ZM380,65V62.9h-2V65Zm0-4.83h-2v2.05h2ZM378.85,52l.2,3.18c.2,2.15.49,3.26.87,3.35v0h-2.19c.4-.16.7-1.3.92-3.4C378.75,54.07,378.82,53,378.85,52Zm9.78,14.15v2h2v-2Zm0,5.53v2.07h2V71.65Zm-2.9,0v2.07h2V71.65ZM385.17,74h0a8.49,8.49,0,0,0-.48-2.77c-.31-.75-.69-1.13-1.12-1.13s-.68.29-.95.85a6.92,6.92,0,0,0-.55,2.18V91.22h3.12Zm2.58-3V68.9h-2V71Zm.88-2.07V71h2V68.9Zm-.88-2.78h-2v2h2Zm-.65-3.22V65h2V62.9Zm2-2.78h-2v2.05h2Zm-1.4-4.92c.08-1.05.14-2.09.17-3.13l.21,3.18c.21,2.15.51,3.26.89,3.32v0h-2.19C387.24,58.46,387.55,57.31,387.75,55.2ZM399.33,86h.87V84.6h-.87Zm2.4-2.67h0v-.2Zm-1.15,1.25V86H401V84.6Zm-14.85,3.7v2h2v-2Zm4.92,2v-2h-2v2Zm0-4.8h-2v2h2Zm-2-5.55v2h2V80Zm0,2.78v2h2v-2Zm-.88,2.77h-2v2h2Zm0-2.77h-2v2h2Zm0-2.78h-2v2h2Zm0-2.77h-2v2.07h2Zm0-.7V74.42h-2V76.5Zm2.9,2.77V77.2h-2v2.07Zm0-2.77V74.42h-2V76.5Zm10.9,8.1h-.47V86h.47Zm-5.05,7v.23h.55v-.23ZM294.42,37.32h-.65v1.43h.65Zm1.06.1h-.56v1.25h.56Zm-2.31,9.2v2h1.53v-2Zm-13.09,20.9h-1V68.6h1Zm.37-6H280v.7h.45Zm-2.18-2.35v1h.5v-1ZM246.88,83.47l.39.48v-.48Zm-2.83.28h-.28v.92h.28Zm1,0h-.27v1h.27Zm0-.78h.28l.28-1.1h-.33Zm-1.19-1.1h-.25l.14,1.1H244Zm.82,0h-.32l-.06,1.1h.28ZM246,86.45a0,0,0,0,1,0,0,.25.25,0,0,0-.1.12h.8v-.4A1,1,0,0,0,246,86.45Zm1.3-.1a1.2,1.2,0,0,0-.57-.13v.4h.59v-.27Zm0,.42h-.59v.45h.57Zm0,1v-.38h-.57v.55h.14a1.06,1.06,0,0,0,.38-.1A.08.08,0,0,1,247.25,87.75Zm-.65-1h-.85a.39.39,0,0,0-.07.28c0,.08,0,.14,0,.17h.87Zm-.65.88s.05,0,.05,0l.23.12a.55.55,0,0,0,.37.1v-.55h-.85s0,0,.05,0v.08Zm-1.52-.5v-.1a.6.6,0,0,1,.12-.38H244A.7.7,0,0,0,244,87v.2Zm20.72.5h.45v-.33h-.45Zm4.9.37h.45v-.2h-.45Zm.08-1.45h-.63v.53h.63Zm-.61-2.17H269v.42h.5Zm.93,0H270v.47h.5Zm0-1.25H270v.42h.5Zm-1.25,0h-.55v.42h.55ZM265.6,85h-1v.85h1Zm40.63-24.7V67h2.12V64.9h1.15V61.05h-2V60.3ZM293.4,55.82h-.5v.78h.5Zm-2.5-3h-1.3v2.68h1.3Zm4.45,6.53h-.52v1.15h.52Zm17.75,6.15h.28v-.88h-.28Zm-1.37-1.4h1v-1.8h-1Zm-26.5,2.7h-.38V67h.38ZM181.82,85.15v.45h.61v-.45Zm-4.34.7v.32h.42v-.32Zm4-3.7v-.43H181v.43Zm.32.82h-.44v.38h.44Zm-4.94.55v.85h1v-.85ZM162,89.07V87.22h-1v1.85Zm.66.53h-.28v.82h.28Zm46.5-10.9c-1.54,0-3,1.55-4.28,4.7a22.33,22.33,0,0,0-1.08,3.32h10.7a21.12,21.12,0,0,0-1.07-3.32Q211.5,78.68,209.18,78.7Zm-5.11-1.4h2.45V76.2a2.56,2.56,0,0,0-1.27-2.08,3,3,0,0,0-1.2,2.2Zm17.56-2q-2.28-.14-4.28,4.67a23.07,23.07,0,0,0-1.62,6.75h11.82A22.45,22.45,0,0,0,225.93,80C224.63,76.77,223.19,75.21,221.63,75.3Zm-8.23,0a5.7,5.7,0,0,0-.7,2.25l0,1.65h4.17l0-1.88a5.21,5.21,0,0,0-.75-2.17,3.85,3.85,0,0,0-1.4-1.43A4.1,4.1,0,0,0,213.4,75.25ZM186.77,89.5v-.43h-.34v.43ZM186.38,88v.4h.44V88Zm3.1,1.58h-.28v.82h.28Zm-1.21-.38h-.59v.5h.59Zm.55-2h-1.07v1.85h1.07Zm-6-.87h-.45v.42h.45Zm0-2.9V83h-.5v.48Zm-.05-1.3v-.43h-.45v.43Zm-5.62,5.5h-.48V88h.48Zm3.64-.23v-.25h-.32v.25Zm39.83,4.43v-.23H220v.23ZM91,68.87v.55h.6v-.55ZM85.9,71.1v1.05h1.25V71.1Zm145.23,6.17a5.84,5.84,0,0,0-.75-2.17,4,4,0,0,0-1.4-1.43,4.1,4.1,0,0,0-1.33,1.58,5.7,5.7,0,0,0-.7,2.25v1.65h4.18Zm7.25,6.13c-1.31-3.15-2.73-4.72-4.28-4.7s-2.95,1.55-4.3,4.7a26,26,0,0,0-1.05,3.32h10.7A26,26,0,0,0,238.38,83.4Zm-1.48-7.08,0,1h2.42V76.2a2.52,2.52,0,0,0-1.25-2.08A2.89,2.89,0,0,0,236.9,76.32ZM87.7,70.2v2.92h.43V70.2Zm0,3.35v1.2a1.3,1.3,0,0,1,.37.37.24.24,0,0,1,.11.13v-.13c0-.28,0-.59-.05-.92v-.65ZM92,73.12v.6h.85v-.6Zm1.23-2.67h-.66V71h.66ZM92,70.35h-.6v.5H92Zm1.18-1.48h-.66v.55h.66Zm-6,5.08H86.6v.42h.55Zm10,0a1,1,0,0,0-.18.6v.2h.55V74Zm1.57,1.4a.48.48,0,0,0,.2-.23A.47.47,0,0,0,99,75a.5.5,0,0,0,0-.13H97.75v.85a.35.35,0,0,0,.18,0,.91.91,0,0,0,.5-.15Zm.75,1.32v.53h.6v-.53ZM99.07,74H97.75v.8h1.38a.91.91,0,0,0,.1-.33A.83.83,0,0,0,99.07,74Zm-1.64-.23-.11.1h.23v-.25Zm.32-.17v.27H99a.53.53,0,0,0-.25-.27.43.43,0,0,0-.18-.15h-.14A1.71,1.71,0,0,0,97.75,73.55Zm-.2,1.32h-.5a1,1,0,0,0,.38.53.34.34,0,0,0,.12.12Zm1.68,3.95H100v-.7h-.77ZM98.1,78h-.45v.48h.45Zm.1-.82v-.53h-.65v.53Zm2.93,1.85H101v1h.15ZM93.2,74.6h-.6v.55h.6Zm-.27,3.25v1h.25v-1Zm.25,1.2h-.11v1h.11Zm-2.5-3.38h-.43V76h.43Zm-2.05.88h-.45V75.47s0-.09-.11-.12a1.94,1.94,0,0,1-.27-.23c0-.06-.07-.1-.1-.1v2h.93Zm1.19-.83s0,.09,0,.27c0-.06,0-.09,0-.09Zm-3.69.93v-.48h-.61v.48Zm20.39.55.53.5v-.5Zm-2.25.27H104v1.25h.29Zm-1.25,0h-.32v1.2H103Zm-.32-.92h.23l-.16-1.43h-.27Zm.68,0h.32l.1-1.38h-.42ZM105,75.12h-.4l-.25,1.38h.33Zm1.2,5.9v-.5a1.33,1.33,0,0,0-.72.33.18.18,0,0,1-.11.05l-.12.12Zm-1.1.58a.51.51,0,0,0,0,.22h1.05v-.6h-1A.59.59,0,0,0,105.05,81.6Zm.1.35,0,.1a.33.33,0,0,0,0,.15.48.48,0,0,1,.2.12v.05a1.27,1.27,0,0,0,.27.18,2.3,2.3,0,0,0,.45,0V82Zm-1.63-.35a.82.82,0,0,1,.16-.53H103a1,1,0,0,0-.09.38.34.34,0,0,0,0,.22h.54Zm3.48-.9a1.15,1.15,0,0,0-.65-.18V81h.7V80.7Zm-.65,1.12H107l0-.6h-.7ZM107,82h-.65v.65h.13a3,3,0,0,0,.47,0s0-.08,0-.08Zm21.07,2.27h-.5v.93h.5ZM140.2,77.8h-1.3v2.62h1.3Zm3.8-6.15h-1.52v2H144Zm-.27-9.3h-.66v1.37h.66Zm1,1.35V62.45h-.54V63.7ZM129.38,92.55h-1v1h1Zm.42-6h-.5v.65h.5Zm4.35,5.48h.28l.09-.28h-.37Zm21.37-6.73v6.73h2.13V89.92h1.15V86h-2v-.7ZM26.68,27.07V27L29,39.72H27.9L27,30.25l.7,9.47h-2l1-12.5Zm8.77,8.28V35.1l0,.07v-.1l2.35,14.3H36.7L35.5,35.2l.9,14.17H34.5Zm-19.93,14,2.33-14.2,0-.1,2.37,14.3H19.1l-1-10.65.7,10.65h-2l.7-10.52-1,10.52ZM142.7,80.85h-.5v.75h.5Zm2,3.42h-.52v1.2h.52ZM27.6,40.82H25.73V44.1H27.6Zm6.58,8.55h-1l2.32-14ZM30.43,42.7H32v4.77h-1.5Zm.75-1.9.32.47a2.41,2.41,0,0,1,.45.8v.5H30.43l0-.5A4.67,4.67,0,0,1,31.18,40.8Zm-.91,1.12v5.7h1.86v-5.7a2.77,2.77,0,0,0-.5-.87l-.45-.58c-.16.19-.3.39-.45.6A2.65,2.65,0,0,0,30.27,41.92Zm-4.87-2.2h-1l2.3-12.5ZM24.48,45V39.9H29V45Zm2.32,2.92h0c.44,0,.81.75,1.11,2.15a44.92,44.92,0,0,1,.59,4.6q.26,3.3.33,6.63v.07H24.8V61.3a59.37,59.37,0,0,1,.9-11.25C26,48.65,26.35,47.94,26.8,47.92ZM21.68,42.7H23.2l-.05,4.77H21.68ZM20.6,39.82h3.58v5.43H29.3V39.82h3.58v9.7h-5c-.3-1.15-.66-1.73-1.08-1.75s-.79.57-1.12,1.75H20.6Zm1.08,2.25a7.43,7.43,0,0,1,.75-1.27l.32.47a2,2,0,0,1,.4.8l.05.5H21.68Zm.75-1.52a5.86,5.86,0,0,0-.45.6,2.65,2.65,0,0,0-.48.85v5.67h1.82V42a2.26,2.26,0,0,0-.47-.88ZM36.35,52.27a3.41,3.41,0,0,0-.5-1.17l-.5-.9-.1.12-.45.8a3.28,3.28,0,0,0-.45,1.15V59.9h2Zm0,8.28H34.27V71.1h2.08ZM25,60.77v.45h1.78v-.45Zm3.28-7.65H26.88v7.53h1.8Q28.58,56.6,28.23,53.12Zm0-.15c-.14-1.15-.29-2.1-.46-2.85-.26-1.26-.56-1.95-.89-2V53ZM25.4,53h1.33v-4.9c-.34,0-.63.72-.88,2A24.9,24.9,0,0,0,25.4,53Zm1.33.15H25.4l-.15,1.53q-.22,3-.3,6h1.78Zm-2,3.9c-.09,1.65-.15,3.14-.18,4.45h4.5A54.8,54.8,0,0,0,28,49.72h4.93l0,13.3H20.6V49.72h5A43.31,43.31,0,0,0,24.73,57Zm2,7.88h0a3.55,3.55,0,0,0-2.45.92,3,3,0,0,0-1.05,2.23h3.53Zm2-3.68,0-.45h-1.8v.45Zm.57,4.45a3.07,3.07,0,0,1,1,1.73V64.8h-3A4,4,0,0,1,29.27,65.67Zm1,2.38a2.94,2.94,0,0,0-1-2.18,3.53,3.53,0,0,0-2.35-1v3.15Zm-7.1-.8a3.22,3.22,0,0,1,1.08-1.63,3.6,3.6,0,0,1,1.9-.82h-3Zm0,.92v3.7h3.58v-3.7Zm-1.3,5.25V74h9.72v-.53Zm.6-.62v.5H31v-.5Zm.68-.55v.4H30.3v-.4Zm7.12-4.08H26.88v3.7h3.37ZM32.1,74.1H21.35v.5H32.1Zm-14-24-.09.13-.46.8a3.43,3.43,0,0,0-.45,1.15v7.62h2V52.2a3.17,3.17,0,0,0-.5-1.18Zm1,10.43H17V71.1h2.07ZM26.5,81.27h.6V80.7h-.6Zm-2.35.78h.37v-.33h-.37Zm-3.1-2h-.6v.47h.6Zm4.8-.88v.6h.8v-.6Zm0-2.17v-.5h-.6V77Zm.6.1h.62v-.55h-.62Zm7.43,7.17h-.75v.65h.75ZM32,84.6v-.48h-.47v.48Zm0-1.8h-.6v.5h.6Zm1.9.5v-.5h-.6v.5Zm-1.3-7.9v-.63H20.77v.63ZM20,82.75v-.48h-.55v.48Zm-.23-5.55v1h1.3v-1ZM79.8,77v-.2l-.15.2ZM76.7,80.3h1.1V78.52H76.7Zm1.62,0h.41V78.52h-.41Zm1.16-1.78h-.55V80.3h.55ZM73.93,87.6v-.38h-.75v.38Zm-.75,13.32v0H10.55v0Zm37.92,0h6.45v0h-9v0h2.5Z"/><path class="b" d="M489.63,90.42V89.6h.27v.82Zm-1.46-3.2h1.08v1.85h-1.08ZM417,80.42l.15.15a.53.53,0,0,1,.17.23h-1v-.23a1.47,1.47,0,0,1,.6-.15Zm.75,3.1v-.4h.45v.4Zm-.25-2.25a1.41,1.41,0,0,1,0,.28h-1.17V80.9h1.13A1.11,1.11,0,0,1,417.45,81.27Zm-.22.6a.39.39,0,0,0-.13.13,1.29,1.29,0,0,0-.25.2,1.25,1.25,0,0,1-.4.07.37.37,0,0,1-.2,0v-.65h1.13A1,1,0,0,1,417.23,81.87Zm-1.06-1.25v.18h-.25s.06-.07.06-.1A.77.77,0,0,0,416.17,80.62Zm-.47,1h.47v.53l-.19-.1A.84.84,0,0,1,415.7,81.67Zm.15-.77h.32v.65h-.52V81.4A.74.74,0,0,1,415.85,80.9Zm.32,2.22h.46v.4h-.46Zm.41,1.43h-.38v-.38h.38Zm.87-.28h.65v.55h-.65Zm5,2.18a.92.92,0,0,1,.6-.23v.4h-.72c0-.06.05-.11.07-.12Zm1.25-.1h.05v.27h-.55v-.4A1,1,0,0,1,423.7,86.35Zm-11.15-9.53v.43h-.45v-.43Zm-1.25,0v.43h-.5v-.43Zm1.25,1.25v.43h-.45v-.43Zm-.92.38h-.46V78h.46Zm.64,1.8v.45h-.64v-.45Zm-5.54-1.68h1v.88h-1Zm1,2.7h-.43V80.9h.43Zm-.78,1.8h-.47V82.7h.47Zm5.68-1.2h-.45v-.42h.45Zm-2,.68h-.33v-.28h.33Zm12.47,4.22v.45h-.88v-.17a.46.46,0,0,1,.06-.28Zm.7,0v.45h-.55v-.45Zm-.55,1.15v-.55h.55v.38a.3.3,0,0,0-.1.07.65.65,0,0,1-.32.1Zm-2.68-1.25h.56a.53.53,0,0,0-.16.38v.1h-.44V87A.72.72,0,0,1,420.52,86.67Zm2.53.7v.55a.83.83,0,0,1-.38-.1.45.45,0,0,0-.22-.12v0l-.12-.15v-.08a.11.11,0,0,1-.1,0ZM472,62.45V63.7h-.5V62.45Zm-1,1.27h-.65V62.35h.65Zm-1.29,7.93h1.57v2h-1.57ZM457,86.57v.65h-.5v-.65Zm-1.65-2.35v.93h-.5v-.93Zm.22,8.33h1.08v1h-1.08Zm11.9-14.75v2.62h-1.29V77.8Zm2.5,3v.75h-.57v-.75Zm1.93,3.42v1.2h-.55v-1.2ZM359.27,56.75v.42h-.52v-.42Zm-1.25,0v.42h-.5v-.42Zm-.19,1.2h.52v.42h-.52Zm1.5,0v.42h-.53V58Zm-4.91,3.2H354v-.38h.47ZM359,60.12v.5h-.6v-.5Zm.38,1.25v.43h-.48v-.43Zm-4.91-2h-1V58.5h1Zm-1.25,3.25h.41V63h-.41Zm10.18.78h-.52v-.35h.52Zm1-.35h.53v.35h-.53Zm-1.47,1h.42v.37h-.42Zm1.29.1h.6v.55h-.6Zm-6.94-1.75h-.33v-.3h.33ZM396.5,91.62h.55v.23h-.55Zm-103.33-45h1.53v2h-1.53Zm2.31-9.2v1.25h-.56V37.42Zm-1.06-.1v1.43h-.65V37.32ZM278.27,59.2h.5v1h-.5Zm2.18,2.35v.7H280v-.7Zm-.37,6V68.6h-1V67.52ZM246,86.45a1,1,0,0,1,.65-.23v.4h-.8a.25.25,0,0,1,.1-.12A0,0,0,0,0,246,86.45Zm1.32.32,0,.45h-.57v-.45Zm0-.42h0v.27h-.59v-.4A1.2,1.2,0,0,1,247.25,86.35Zm0,1.4a.08.08,0,0,0-.05.07,1.06,1.06,0,0,1-.38.1h-.14v-.55h.57Zm-2.82-.6H244V87a.7.7,0,0,1,.05-.28h.55a.6.6,0,0,0-.12.38Zm1.52.5-.15-.15v-.08s-.05,0-.05,0h.85v.55a.55.55,0,0,1-.37-.1L246,87.7S246,87.65,246,87.65Zm.65-.88v.45h-.87s0-.09,0-.17a.39.39,0,0,1,.07-.28Zm19-1.77v.85h-1V85Zm3.6-1.8v.42h-.55V83.2Zm1.25,0v.42H270V83.2Zm0,1.25v.47H270v-.47Zm-.93,0v.42H269V84.4Zm.61,2.17v.53h-.63v-.53ZM270.05,88v-.2h.45V88Zm-4.9-.37v-.33h.45v.33Zm46.58-23.6v-1.8h1v1.8Zm1.37,1.4v-.88h.28v.88ZM295.35,59.3v1.15h-.52V59.3Zm-4.45-6.53v2.68h-1.3V52.77Zm2.5,3v.78h-.5v-.78ZM176.88,83.52h1v.85h-1Zm4.94-.55v.38h-.44V83Zm-.32-.82H181v-.43h.5Zm-4,3.7h.42v.32h-.42Zm4.34-.7h.61v.45h-.61Zm-1,2.27h-.32v-.25h.32Zm-3.64.23V88h-.48v-.32Zm5.62-5.5h-.45v-.43h.45Zm.05,1.3h-.5V83h.5Zm0,2.9v.42h-.45v-.42Zm6,.87v1.85h-1.07V87.22Zm-.55,2v.5h-.59v-.5Zm1.21.38v.82h-.28V89.6ZM186.38,88h.44v.4h-.44Zm.39,1.48h-.34v-.43h.34ZM213.4,75.25a4.1,4.1,0,0,1,1.33-1.58,3.85,3.85,0,0,1,1.4,1.43,5.21,5.21,0,0,1,.75,2.17l0,1.88h-4.17l0-1.65A5.7,5.7,0,0,1,213.4,75.25Zm8.23,0c1.56-.09,3,1.47,4.3,4.67a22.45,22.45,0,0,1,1.62,6.75H215.73A23.07,23.07,0,0,1,217.35,80Q219.35,75.17,221.63,75.3Zm-17.56,2,0-1a3,3,0,0,1,1.2-2.2,2.56,2.56,0,0,1,1.27,2.08v1.1Zm5.11,1.4q2.32,0,4.27,4.7a21.12,21.12,0,0,1,1.07,3.32h-10.7a22.33,22.33,0,0,1,1.08-3.32C206.22,80.25,207.64,78.68,209.18,78.7ZM220.6,91.85H220v-.23h.6Zm16.3-15.53a2.89,2.89,0,0,1,1.2-2.2,2.52,2.52,0,0,1,1.25,2.08v1.1h-2.42Zm1.48,7.08a26,26,0,0,1,1.07,3.32h-10.7a26,26,0,0,1,1.05-3.32q2-4.73,4.3-4.7C235.65,78.68,237.07,80.25,238.38,83.4Zm-7.25-6.13v1.88H227V77.5a5.7,5.7,0,0,1,.7-2.25A4.1,4.1,0,0,1,229,73.67a4,4,0,0,1,1.4,1.43A5.84,5.84,0,0,1,231.13,77.27ZM85.9,71.1h1.25v1.05H85.9ZM91,68.87h.6v.55H91ZM87.15,74v.42H86.6V74Zm6-5.08v.55h-.66v-.55ZM92,70.35v.5h-.6v-.5Zm1.18.1V71h-.66v-.55ZM92,73.12h.85v.6H92Zm5.23.83h.37v.8H97v-.2A1,1,0,0,1,97.18,74Zm.57-.4a1.71,1.71,0,0,1,.68-.15h.14a.43.43,0,0,1,.18.15.53.53,0,0,1,.25.27H97.75Zm-.32.17.12-.15v.25h-.23Zm1.64.23a.83.83,0,0,1,.16.47.91.91,0,0,1-.1.33H97.75V74Zm.43,2.72h.6v.53h-.6Zm-.75-1.32-.32.17a.91.91,0,0,1-.5.15.35.35,0,0,1-.18,0v-.85h1.32A.5.5,0,0,1,99,75a.47.47,0,0,1-.07.12A.48.48,0,0,1,98.75,75.35Zm-1.2-.48v.65a.34.34,0,0,1-.12-.12,1,1,0,0,1-.38-.53Zm.65,2.33h-.65v-.53h.65Zm-.1.82v.48h-.45V78Zm1.13.8v-.7H100v.7Zm-6-4.22v.55h-.6V74.6Zm-2.52,1.07V76h-.43v-.33Zm-4.55,1h-.61v-.48h.61Zm20,4.37h-1l.12-.12a.18.18,0,0,0,.11-.05,1.33,1.33,0,0,1,.72-.33Zm.2.8v-.6h.7l0,.6ZM107,80.7h0V81h-.7v-.5A1.15,1.15,0,0,1,107,80.7Zm-3.48.9v.07H103a.34.34,0,0,1,0-.22,1,1,0,0,1,.09-.38h.66A.82.82,0,0,0,103.52,81.6Zm1.63.35h1v.65a2.3,2.3,0,0,1-.45,0,1.27,1.27,0,0,1-.27-.18v-.05a.48.48,0,0,0-.2-.12.33.33,0,0,1,0-.15Zm-.1-.35a.59.59,0,0,1,.1-.38h1v.6H105.1A.51.51,0,0,1,105.05,81.6Zm2,.35v.52s0,0,0,.08a3,3,0,0,1-.47,0h-.13V82Zm22.8,4.62v.65h-.5v-.65Zm-.42,6v1h-1v-1Zm27.14-6v.65H156v-.65ZM27.6,40.82V44.1H25.73V40.82Zm8.58,11.45,0,.65H34.5v-.65a5.55,5.55,0,0,1,.85-1.75A6.11,6.11,0,0,1,36.18,52.27Zm0,.78,0,6.72H34.5V53.05ZM34.45,60.7h1.73v1.4H34.45Zm-5.18,5a4,4,0,0,0-2-.87h3v2.6A3.07,3.07,0,0,0,29.27,65.67Zm-6.12,1.58V64.8h3a3.6,3.6,0,0,0-1.9.82A3.22,3.22,0,0,0,23.15,67.25Zm0,5H30.3v.4H23.13Zm-.68.55H31v.5H22.45Zm-.6.62h9.72V74H21.85Zm12.6-11.2h1.73V69.9H34.45Zm0,8.73V70h1.73V71ZM32.1,74.1v.5H21.35v-.5ZM17.18,60.7H18.9v1.42H17.18Zm.05-7.63h1.7l0,6.6H17.23Zm.84-2.65a7.39,7.39,0,0,1,.83,1.78l0,.7h-1.7v-.7A6.79,6.79,0,0,1,18.07,50.42ZM17.18,70H18.9v1H17.18Zm0-7.72H18.9v7.57H17.18Zm2.57,15h1.3v1h-1.3ZM20,82.75h-.55v-.48H20ZM32.65,75.4H20.77v-.63H32.65ZM34,83.3h-.6v-.5H34Zm-1.9-.5v.5h-.6v-.5Zm0,1.8h-.47v-.48H32Zm1.86-.33v.65h-.75v-.65ZM26.45,77.1v-.55h.62v.55Zm-.6-.1h-.6v-.5h.6Zm0,2.17h.8v.6h-.8Zm-4.8.88v.47h-.6v-.47Zm3.1,2v-.33h.37v.33Zm2.35-.78V80.7h.6v.57ZM73.93,87.6h-.75v-.38h.75Zm35,13.27v0h-.33v0Zm2.17,0h-1.85v0h1.85Z"/><polygon class="c" points="419.5 81.45 419.45 81.5 419.45 81.45 419.45 81.4 419.5 81.4 419.5 81.45"/><polygon class="d" points="247.72 46.2 247.72 46.02 247.93 46.02 248 43.52 248.25 43.52 248.28 46.02 248.38 46.02 248.38 46.2 248.7 46.2 248.7 46.57 248.32 46.57 248.32 48.7 248.53 48.7 248.53 49.07 248.93 49.07 248.93 49.35 248.38 49.35 248.38 51.42 248.6 51.42 248.6 51.8 248.93 51.8 248.93 52.07 248.43 52.07 248.47 55.45 249.13 55.45 249.13 55.72 248.65 55.72 248.65 56.57 248.53 56.57 248.57 59.57 250 59.57 250 59.9 248.57 59.9 248.57 60 249.2 60 249.2 61.87 249.53 61.87 249.53 62.52 250.55 62.52 250.55 63.07 249.53 63.07 249.53 63.45 250.55 63.45 250.55 63.97 249.53 63.97 249.53 64.25 250.72 64.25 250.72 64.75 249.53 64.75 249.53 65.02 250.72 65.02 250.72 65.45 249.53 65.45 249.53 65.55 250.05 65.55 250.05 67.1 246.72 67.1 246.72 65.55 247.03 65.55 247.03 65.45 245.82 65.45 245.82 65.02 247.03 65.02 247.03 64.75 245.82 64.75 245.82 64.25 247.03 64.25 247.03 63.97 246.15 63.97 246.15 63.45 247.03 63.45 247.03 63.07 246.15 63.07 246.15 62.52 247.03 62.52 247.03 61.87 247.28 61.87 247.28 60 247.65 60 247.65 59.9 247.03 59.9 247.03 59.57 247.65 59.57 247.72 56.57 247.6 56.57 247.6 55.72 247.28 55.72 247.28 55.45 247.72 55.45 247.82 52.07 247.32 52.07 247.32 51.8 247.6 51.8 247.6 51.42 247.82 51.42 247.88 49.35 247.45 49.35 247.45 49.07 247.72 49.07 247.72 48.7 247.88 48.7 247.93 46.57 247.5 46.57 247.5 46.2 247.72 46.2"/><polygon class="e" points="168.28 89.55 166.97 89.55 166.97 90.15 167.22 90.15 167.22 92.05 165.55 92.05 165.55 91.07 166.2 91.07 166.2 89 168.28 89 168.28 89.55"/><rect class="f" x="132.38" y="86.57" width="0.65" height="1.45"/><path class="g" d="M26.73,53.12v7.53H25q.07-3,.3-6l.15-1.53ZM25.4,53a24.9,24.9,0,0,1,.45-2.9c.25-1.28.54-2,.88-2V53Zm2.83,0H26.88v-4.9c.33.1.63.79.89,2C27.94,50.87,28.09,51.82,28.23,53Zm0,.15q.35,3.48.45,7.53h-1.8V53.12ZM25,60.77h1.78v.45H25Zm3.75.45H26.88v-.45h1.8Zm-2,3.68v3.15H23.2a3,3,0,0,1,1.05-2.23,3.55,3.55,0,0,1,2.45-.92Zm3.52,3.15H26.88V64.9a3.53,3.53,0,0,1,2.35,1A2.94,2.94,0,0,1,30.25,68.05Zm-7.1.12h3.58v3.7H23.15Zm7.1,0v3.7H26.88v-3.7Z"/></svg>