<svg xmlns="http://www.w3.org/2000/svg" width="512" height="256" viewBox="0 0 512 256"><defs><style>.a{fill:#d8d8d8;}.b{fill:#b5b7ca;}.b,.c,.d,.e{fill-rule:evenodd;}.c{fill:#545667;}.d{fill:#eaeaea;}.e{fill:#7a7c92;}.f{fill:#a4a6bd;}</style></defs><title>Artboard 2</title><rect class="a" y="188" width="512" height="1.43"/><path class="b" d="M512,195.13H0v-5.7H512ZM0,249v-1.5H512V249Z"/><path class="c" d="M361.45,219.91v-3.43h-22.2v3.43Zm44.53,0v-3.43H383.75v3.43Zm48.19,0v-3.43H432v3.43Zm22.31-3.43v3.43H498.7v-3.43Zm35.52,21H0V201H512Zm-384.23-17.6v-3.43H105.55v3.43Zm26-3.43v3.43H176v-3.43Zm-70.52,0H61.05v3.43h22.2Zm-48.25,0H12.7v3.43H35Zm185.5,3.43v-3.43H198.3v3.43Zm48.23,0v-3.43H246.5v3.43Zm44.5,0v-3.43H291v3.43Z"/><path class="d" d="M476.48,216.48H498.7v3.43H476.48Zm-22.31,3.43H432v-3.43h22.19Zm-48.19,0H383.75v-3.43H406Zm-44.53,0h-22.2v-3.43h22.2Zm-207.68-3.43H176v3.43H153.77Zm-26,3.43H105.55v-3.43h22.22ZM35,216.48v3.43H12.7v-3.43Zm48.25,0v3.43H61.05v-3.43Zm230,3.43H291v-3.43h22.21Zm-44.5,0H246.5v-3.43h22.23Zm-48.23,0H198.3v-3.43h22.2Z"/><path class="e" d="M0,201v-5.84H512V201ZM0,249H512v7H0Z"/><rect class="f" y="237.51" width="512" height="10.01"/></svg>